<svg width="40" height="71" viewBox="0 0 40 71" fill="none" xmlns="http://www.w3.org/2000/svg">
<path opacity="0.999" d="M24.1058 0.907715L27.7216 4.2557L23.1684 8.13936L26.3824 11.0856L30.5339 7.33584L33.3462 10.1481L29.5965 14.2996L32.2749 17.3798L36.2925 12.9604L39.2387 16.1745L35.355 20.0582L39.5065 23.8079L36.2925 27.2898L32.141 22.7365L29.0608 26.2184L33.4802 29.8343L30.9357 32.6466L26.3824 28.8968L23.7041 31.4413L27.7216 35.5928L25.0433 39.3425L20.5235 35.2915L16.7068 39.5434L12.7896 35.8271L16.7737 31.7761L14.6645 29.7338L11.0822 33.5505L6.83025 29.7673L10.9817 25.6493L8.77207 23.8749L4.98886 27.7585L3.51575 26.2854" stroke="black" stroke-width="0.219466" stroke-linecap="round" stroke-linejoin="round"/>
<path opacity="0.999" d="M20.3669 9.04102L32.0144 19.931L20.8404 31.6732L8.90881 19.7416L20.3669 9.04102Z" stroke="black" stroke-width="0.219466" stroke-linecap="round" stroke-linejoin="round"/>
<path opacity="0.999" d="M11.5603 19.6472L20.2723 11.4087L28.8895 19.5525L20.7457 27.791L11.5603 19.6472Z" stroke="black" stroke-width="0.219466" stroke-linecap="round" stroke-linejoin="round"/>
<path opacity="0.999" d="M24.1058 0.90791L20.9351 4.96921L16.8158 0.471191L12.9333 4.11695L16.9579 8.28354L14.5432 10.4615L10.9447 6.43699L7.06224 10.1301L10.9447 13.9179L8.86145 16.2379L4.74221 12.0713L0.765015 16.0012L4.78955 19.8837L1.19114 23.7189L3.51574 26.2856" stroke="black" stroke-width="0.219466" stroke-linecap="round" stroke-linejoin="round"/>
<path opacity="0.999" d="M21.2665 14.9124L26.2853 19.8839L20.8403 25.5182L14.6378 20.0733L20.651 14.2495L21.2665 14.9124Z" stroke="black" stroke-width="0.219466" stroke-linecap="round" stroke-linejoin="round"/>
<path opacity="0.999" d="M20.5564 18.5107L22.0241 19.9785L20.6511 21.4463L18.9465 19.7891L20.5564 18.5107Z" stroke="black" stroke-width="0.219466" stroke-linecap="round" stroke-linejoin="round"/>
<path opacity="0.999" d="M20.5813 43.9487L33.5438 56.5104L33.8779 56.8445L20.4476 70.2748L6.48279 56.644L20.5813 43.9487Z" stroke="black" stroke-width="0.219" stroke-linecap="round" stroke-linejoin="round"/>
<path opacity="0.999" d="M20.3808 47.6235L29.5348 57.0448L20.8486 66.132L10.9596 56.8443L20.3808 47.6235Z" stroke="black" stroke-width="0.219" stroke-linecap="round" stroke-linejoin="round"/>
<path opacity="0.999" d="M20.314 50.1626L27.0625 56.978L20.4476 63.5929L13.4318 56.7775L20.314 50.1626Z" stroke="black" stroke-width="0.219" stroke-linecap="round" stroke-linejoin="round"/>
<path opacity="0.999" d="M20.3808 51.833L25.5258 56.8443L20.5813 62.1897L15.1691 56.8443L20.3808 51.833Z" stroke="black" stroke-width="0.219" stroke-linecap="round" stroke-linejoin="round"/>
<path opacity="0.999" d="M20.1804 55.5752L21.6504 56.8447L20.4476 58.1811L18.9777 56.7111L20.1804 55.5752Z" stroke="black" stroke-width="0.219" stroke-linecap="round" stroke-linejoin="round"/>
<path opacity="0.999" d="M11.4917 18.4539C11.3815 18.3066 11.3815 18.2037 11.4917 18.3028C11.5671 18.3705 11.5901 18.3694 11.7516 18.2905C11.9594 18.1891 11.9946 18.2538 11.7894 18.36C11.7127 18.3996 11.633 18.4618 11.6122 18.4982C11.5821 18.5509 11.5575 18.5418 11.4917 18.4539Z" stroke="black" stroke-width="0.0391073" stroke-linecap="round" stroke-linejoin="round"/>
<path opacity="0.999" d="M14.8427 25.5747L8.99243 19.7243L13.9214 15.122C16.6324 12.5908 19.1613 10.2275 19.5413 9.87022L20.2321 9.2207L25.8488 14.469C28.9379 17.3555 31.5126 19.763 31.5703 19.8189L31.6753 19.9205L26.2138 25.661C23.21 28.8183 20.739 31.4068 20.7226 31.4133C20.7063 31.4198 18.0604 28.7925 14.8427 25.5747ZM22.8222 25.6964C24.0157 24.4946 25.8606 22.6373 26.9219 21.5692C28.3984 20.0832 28.8478 19.6042 28.8356 19.5296C28.817 19.4168 20.2789 11.3288 20.1561 11.3078C20.0568 11.2907 11.3044 19.5531 11.3245 19.645C11.3411 19.7212 20.5305 27.8786 20.6017 27.8804C20.6294 27.8811 21.6286 26.8983 22.8222 25.6964ZM11.9401 18.2356C11.914 18.2096 11.8439 18.2126 11.7629 18.2434C11.6892 18.2714 11.5688 18.2811 11.4953 18.265C11.3373 18.2303 11.3269 18.2805 11.4577 18.4469L11.5536 18.5688L11.7685 18.4238C11.8983 18.3362 11.9662 18.2617 11.9401 18.2356Z" stroke="black" stroke-width="0.0391073" stroke-linecap="round" stroke-linejoin="round"/>
<path opacity="0.999" d="M14.8529 25.5312L9.03979 19.7316L12.7639 16.2547C14.8122 14.3425 17.3307 11.9896 18.3605 11.0262L20.2329 9.27441L25.903 14.5739C29.0216 17.4886 31.5775 19.8912 31.5828 19.913C31.5881 19.9348 30.0118 21.614 28.0799 23.6444C22.2315 29.7912 20.7553 31.3307 20.7097 31.3307C20.6857 31.3307 18.0502 28.7209 14.8529 25.5312ZM24.5458 24.019C28.5253 20.0127 28.9156 19.6028 28.8545 19.4936C28.7848 19.3691 24.4914 15.2701 21.8736 12.8288C20.3086 11.3694 20.2279 11.298 20.142 11.298C19.9686 11.298 11.3146 19.4774 11.3146 19.6413C11.3146 19.7256 15.153 23.1683 19.3858 26.8804L20.5826 27.9299L20.7164 27.8347C20.7899 27.7823 22.5131 26.0653 24.5458 24.019ZM11.976 18.2583C11.976 18.2095 11.9076 18.1999 11.6807 18.2172C11.5183 18.2295 11.3695 18.2404 11.35 18.2415C11.283 18.245 11.3148 18.3308 11.4368 18.4759L11.5591 18.6212L11.7676 18.4715C11.8822 18.3892 11.976 18.2932 11.976 18.2583Z" stroke="black" stroke-width="0.0391073" stroke-linecap="round" stroke-linejoin="round"/>
<path opacity="0.999" d="M15.2764 38.067C14.5619 37.3894 13.7256 36.5969 13.4178 36.3061L12.8581 35.7773L14.7912 33.8091C15.8544 32.7266 16.7413 31.8111 16.7621 31.7747C16.7893 31.727 16.5447 31.4595 15.8881 30.819C14.7614 29.72 14.5947 29.5708 14.5153 29.5905C14.4806 29.5991 13.669 30.4408 12.7117 31.461C11.2038 33.0679 10.961 33.308 10.8957 33.2564C10.8542 33.2237 9.94816 32.4223 8.88223 31.4757C7.81631 30.529 6.93726 29.7496 6.92881 29.7437C6.92034 29.7377 7.83022 28.8233 8.95074 27.7116C10.2905 26.3824 10.9833 25.6628 10.9741 25.6099C10.9562 25.5062 8.73446 23.7125 8.64869 23.7324C8.61311 23.7407 7.76112 24.5926 6.75537 25.6255C5.74963 26.6585 4.9127 27.5036 4.89555 27.5036C4.79207 27.5036 1.29817 23.8063 1.29817 23.6968C1.29817 23.6817 2.08483 22.8325 3.04631 21.8097C4.03645 20.7564 4.79402 19.913 4.79346 19.8644C4.79293 19.814 3.98367 19.0005 2.83069 17.8911L0.868896 16.0035L2.67812 14.1911C3.67319 13.1943 4.52958 12.3553 4.58121 12.3267C4.6655 12.2801 4.8805 12.4836 6.68829 14.3219C8.1231 15.7808 8.72274 16.3608 8.77541 16.3406C8.89939 16.293 10.9366 14.0022 10.9361 13.9109C10.9358 13.8612 10.2118 13.1224 9.19975 12.1392C8.24503 11.2117 7.39377 10.3804 7.30805 10.2919L7.1522 10.1311L8.98889 8.38102L10.8256 6.63095L12.5938 8.6119C13.8384 10.0062 14.3852 10.587 14.4404 10.5729C14.4835 10.562 15.0618 10.0668 15.7255 9.4726C16.6609 8.63517 16.9301 8.36906 16.9228 8.28937C16.9169 8.22538 16.2526 7.50282 15.1636 6.37587C14.2013 5.37999 13.324 4.46678 13.214 4.34653L13.014 4.12787L14.8422 2.4094C15.8476 1.46423 16.676 0.690918 16.6829 0.690918C16.6898 0.690918 17.5904 1.66893 18.6843 2.86428C19.7781 4.05963 20.7029 5.05801 20.7394 5.08291C20.7851 5.11414 20.8321 5.1041 20.8911 5.05054C20.9381 5.00784 21.6463 4.1116 22.4648 3.05888C23.2834 2.00617 23.9691 1.14904 23.9887 1.15416C24.0788 1.17774 27.3794 4.2755 27.3458 4.30487C27.3248 4.32318 26.3615 5.14166 25.2052 6.12373C22.7288 8.22683 22.8676 8.10121 22.9201 8.19204C23 8.32996 26.1738 11.2033 26.244 11.2013C26.2833 11.2002 27.2297 10.3713 28.3471 9.3595L30.3787 7.51985L31.6963 8.83666L33.0138 10.1535L31.1635 12.2019C30.1458 13.3285 29.319 14.2771 29.3262 14.3099C29.3509 14.4228 32.0324 17.4815 32.1091 17.4844C32.1524 17.4859 33.0399 16.5473 34.139 15.3375C35.2132 14.1551 36.1072 13.1878 36.1258 13.1878C36.1526 13.1878 38.4191 15.6364 38.7862 16.0621L38.8783 16.1688L36.979 18.0685C35.9344 19.1133 35.0798 20.0013 35.0798 20.0419C35.0798 20.0825 35.9945 20.9416 37.1126 21.9509C39.1366 23.7782 39.145 23.7866 39.0576 23.8849C38.537 24.4708 36.1516 27.0311 36.1263 27.0311C36.1079 27.0311 35.1826 26.0319 34.07 24.8105C32.9574 23.5892 32.0189 22.5899 31.9844 22.5899C31.906 22.5899 28.8247 26.0671 28.8056 26.1771C28.7959 26.2333 29.4393 26.7872 30.9435 28.0174C32.1271 28.9854 33.0954 29.7951 33.0954 29.8167C33.0954 29.8383 32.5726 30.4332 31.9335 31.1388L30.7716 32.4216L30.5515 32.2424C30.4305 32.1438 29.4199 31.3126 28.3058 30.3953C27.1917 29.4779 26.253 28.7337 26.2198 28.7415C26.1186 28.7652 23.4817 31.2991 23.4656 31.3881C23.4555 31.4441 24.0877 32.1281 25.4027 33.4838C26.4764 34.5907 27.3621 35.5162 27.3709 35.5403C27.3897 35.592 24.9123 39.0818 24.8679 39.0661C24.8513 39.0603 23.8475 38.1679 22.6374 37.0829C21.4273 35.998 20.4155 35.1104 20.389 35.1104C20.3625 35.1104 19.7724 35.7429 19.0775 36.516C18.3826 37.2891 17.5354 38.2315 17.1947 38.6104L16.5753 39.2991L15.2764 38.067ZM20.8404 31.6732C20.8862 31.6277 23.4019 28.987 26.4308 25.805C30.3123 21.7273 31.9379 19.9889 31.9379 19.9158C31.9379 19.8391 30.4301 18.4024 26.1341 14.3856C22.942 11.4011 20.2943 8.95296 20.2504 8.9454C20.1642 8.93059 8.6687 19.6308 8.6687 19.7257C8.6687 19.7967 20.6304 31.7558 20.7014 31.7558C20.7321 31.7558 20.7947 31.7186 20.8404 31.6732Z" fill="#FF0000" fill-opacity="0.996183" stroke="black" stroke-width="0.0391073" stroke-linecap="round" stroke-linejoin="round"/>
<path opacity="0.999" d="M17.6808 22.67L14.7157 20.0623L15.4129 19.3763C15.7964 18.999 17.0988 17.7339 18.3071 16.5651L20.5041 14.4399L23.2329 17.1566L25.9616 19.8733L23.3581 22.5664C21.9262 24.0476 20.7302 25.2636 20.7002 25.2686C20.6703 25.2735 19.3116 24.1042 17.6808 22.67ZM21.2674 20.8139C21.6531 20.4087 21.976 20.0334 21.9848 19.98C21.9967 19.9075 21.811 19.6927 21.253 19.134C20.8417 18.7221 20.4718 18.3851 20.431 18.3851C20.3374 18.3851 18.6855 19.6951 18.6841 19.7705C18.6827 19.8394 20.4361 21.5453 20.5114 21.5484C20.5414 21.5497 20.8816 21.2191 21.2674 20.8139Z" fill="#FF0000" fill-opacity="0.996183" stroke="black" stroke-width="0.0391073" stroke-linecap="round" stroke-linejoin="round"/>
<path opacity="0.999" d="M25.7799 24.9106C25.7316 24.8799 25.7469 24.847 25.8462 24.7689C26.0025 24.646 26.026 24.6588 25.9488 24.8252C25.8846 24.9634 25.8727 24.9694 25.7799 24.9106Z" fill="white" fill-opacity="0.996183" stroke="black" stroke-width="0.0391073" stroke-linecap="round" stroke-linejoin="round"/>
<path opacity="0.999" d="M14.8895 25.5082L9.08582 19.7315L10.2811 18.6212C10.9384 18.0106 13.4403 15.6756 15.8407 13.4324C18.2411 11.1891 20.2298 9.36402 20.2601 9.37653C20.2904 9.38904 20.7198 9.77864 21.2145 10.2423C21.7091 10.706 23.4206 12.3073 25.0178 13.8008C26.6151 15.2943 28.7349 17.2801 29.7285 18.2137L31.5352 19.9112L31.3383 20.1285C30.4761 21.0802 22.7349 29.2166 21.545 30.4218L20.6931 31.2848L14.8895 25.5082ZM22.9751 25.6492C25.6009 23.0307 28.5638 20.0096 28.765 19.7456C28.8468 19.6382 28.8879 19.5379 28.8713 19.4857C28.818 19.3178 20.6677 11.5792 20.269 11.318C20.1547 11.2431 20.1428 11.2448 19.9961 11.3578C19.4384 11.787 14.2277 16.6814 12.0257 18.8443L11.2455 19.6107L11.4336 19.8069C12.0182 20.4168 20.4881 27.9651 20.5966 27.9729C20.6215 27.9748 21.6918 26.929 22.9751 25.6492ZM25.9909 24.8268C26.0265 24.6849 25.9816 24.6328 25.8794 24.6973C25.7457 24.7817 25.6923 24.9022 25.7679 24.9493C25.8648 25.0098 25.9578 24.9587 25.9909 24.8268ZM11.917 18.3873C12.0448 18.2665 12.051 18.2138 11.9406 18.1869C11.7963 18.1516 11.2991 18.2174 11.2804 18.2743C11.2705 18.3043 11.3294 18.4052 11.4114 18.4985L11.5603 18.6682L11.6855 18.5779C11.7543 18.5283 11.8585 18.4425 11.917 18.3873Z" fill="black" fill-opacity="0.996183" stroke="black" stroke-width="0.0391073" stroke-linecap="round" stroke-linejoin="round"/>
<path opacity="0.999" d="M13.7622 57.892C10.0052 54.2263 6.93653 51.1969 6.943 51.1602C6.95642 51.084 20.6932 38.6987 20.7643 38.6987C20.7899 38.6987 23.7496 41.546 27.3415 45.026L33.8723 51.3533L27.2706 57.9552C23.6397 61.5862 20.6519 64.5571 20.6311 64.5571C20.6103 64.5571 17.5193 61.5578 13.7622 57.892ZM25.4808 56.2036C27.8688 53.7039 29.8227 51.6167 29.8227 51.5654C29.8227 51.4643 20.6301 41.9626 20.5585 41.9897C20.423 42.0412 11.0166 51.3081 11.0304 51.3766C11.0565 51.5063 20.9237 60.7461 21.0375 60.7474C21.0932 60.7479 23.0928 58.7033 25.4808 56.2036Z" fill="#FF0000" fill-opacity="0.996183" stroke="black" stroke-width="0.0553059" stroke-linecap="round" stroke-linejoin="round"/>
<path opacity="0.999" d="M18.1401 53.9157L15.5447 51.3607L18.0223 48.9887C19.385 47.6841 20.5306 46.6167 20.5679 46.6167C20.6053 46.6167 21.7326 47.6808 23.0732 48.9814C25.5022 51.338 25.5101 51.3465 25.3948 51.4963C25.2061 51.7414 20.8089 56.4723 20.7707 56.4715C20.7513 56.4709 19.5676 55.3209 18.1401 53.9157ZM21.3422 52.1245C21.67 51.7544 21.9463 51.4161 21.9561 51.3728C21.9659 51.3294 21.6129 50.9834 21.1715 50.6038L20.3691 49.9136L19.7009 50.537C19.3333 50.8798 19.0324 51.1899 19.0321 51.2261C19.0313 51.3367 20.5256 52.7973 20.6395 52.7973C20.6982 52.7973 21.0144 52.4945 21.3422 52.1245Z" fill="#FF0000" fill-opacity="0.996183" stroke="black" stroke-width="0.0553059" stroke-linecap="round" stroke-linejoin="round"/>
<path opacity="0.999" d="M17.6574 55.0301C16.0429 53.4652 14.519 51.9841 14.271 51.7387L13.8199 51.2925L16.6688 48.5536C18.2356 47.0472 19.7441 45.6046 20.0208 45.3478L20.5241 44.8809L23.785 48.1875L27.0459 51.4942L23.8576 54.6847C22.104 56.4395 20.6521 57.8752 20.631 57.8752C20.61 57.8752 19.2719 56.5949 17.6574 55.0301ZM23.3436 54.1321C24.7022 52.6613 25.8219 51.421 25.8319 51.3758C25.8496 51.2958 20.6683 46.2156 20.569 46.2156C20.4926 46.2156 15.2255 51.2842 15.2227 51.3605C15.2187 51.4654 20.6564 56.799 20.7712 56.8028C20.8275 56.8046 21.9851 55.6028 23.3436 54.1321Z" fill="black" fill-opacity="0.996183" stroke="black" stroke-width="0.0553059" stroke-linecap="round" stroke-linejoin="round"/>
</svg>
