<?xml version="1.0" encoding="UTF-8" standalone="no"?>
<svg
   xmlns:dc="http://purl.org/dc/elements/1.1/"
   xmlns:cc="http://creativecommons.org/ns#"
   xmlns:rdf="http://www.w3.org/1999/02/22-rdf-syntax-ns#"
   xmlns:svg="http://www.w3.org/2000/svg"
   xmlns="http://www.w3.org/2000/svg"
   xmlns:sodipodi="http://sodipodi.sourceforge.net/DTD/sodipodi-0.dtd"
   xmlns:inkscape="http://www.inkscape.org/namespaces/inkscape"
   version="1.1"
   id="svg833"
   width="523.68451"
   height="525.33655"
   viewBox="0 0 523.68451 525.33655"
   sodipodi:docname="leleki.svg"
   inkscape:version="1.0.1 (3bc2e813f5, 2020-09-07)">
  <metadata
     id="metadata839">
    <rdf:RDF>
      <cc:Work
         rdf:about="">
        <dc:format>image/svg+xml</dc:format>
        <dc:type
           rdf:resource="http://purl.org/dc/dcmitype/StillImage" />
        <dc:title></dc:title>
      </cc:Work>
    </rdf:RDF>
  </metadata>
  <defs
     id="defs837" />
  <sodipodi:namedview
     pagecolor="#ffffff"
     bordercolor="#666666"
     borderopacity="1"
     objecttolerance="10"
     gridtolerance="10"
     guidetolerance="10"
     inkscape:pageopacity="0"
     inkscape:pageshadow="2"
     inkscape:window-width="1701"
     inkscape:window-height="1020"
     id="namedview835"
     showgrid="false"
     inkscape:zoom="0.60532626"
     inkscape:cx="264.21646"
     inkscape:cy="319.25693"
     inkscape:window-x="192"
     inkscape:window-y="0"
     inkscape:window-maximized="0"
     inkscape:current-layer="layer1"
     fit-margin-top="0"
     fit-margin-left="0"
     fit-margin-right="0"
     fit-margin-bottom="0" />
  <g
     inkscape:groupmode="layer"
     id="layer1"
     inkscape:label="Image 1"
     transform="translate(-74.340073,-6.608007)">
    <rect
       style="fill:none;fill-rule:evenodd"
       id="rect1468"
       width="523.68451"
       height="525.33655"
       x="74.340073"
       y="6.608007" />
    <rect
       style="fill:none;fill-rule:evenodd"
       id="rect1470"
       width="523.68451"
       height="525.33655"
       x="74.340073"
       y="6.608007" />
  </g>
  <g
     id="g887"
     transform="translate(-74.340073,-6.608007)">
    <path
       style="opacity:0.999;fill:none;stroke:#000000;stroke-width:3.81732;stroke-linecap:round;stroke-linejoin:round;stroke-opacity:1"
       d="m 332.25884,57.613559 7.02101,15.281015 2.6845,9.29251 14.24851,14.661515 15.07452,18.585021 c 0,0 5.9885,9.29251 1.8585,28.91003 0,0 4.33651,11.35751 -17.34602,34.27903"
       id="path850" />
    <path
       style="opacity:0.999;fill:none;stroke:#000000;stroke-width:3.81732;stroke-linecap:round;stroke-linejoin:round;stroke-opacity:1"
       d="m 355.79986,178.62268 c 0,0 -22.71502,37.58304 -8.67301,60.29806 0,0 15.28102,37.99604 54.72256,14.04202 l 55.75506,-39.64804 c 0,0 23.12802,-15.90052 31.38803,-6.81451 0,0 19.61752,11.97701 10.94451,33.65954 0,0 -13.00951,16.10701 -6.40151,28.49702 l 5.57551,37.37654"
       id="path852" />
    <path
       style="opacity:0.999;fill:none;stroke:#000000;stroke-width:3.81732;stroke-linecap:round;stroke-linejoin:round;stroke-opacity:1"
       d="M 499.11101,306.03331 480.73249,249.86525"
       id="path854" />
    <path
       style="opacity:0.999;fill:none;stroke:#000000;stroke-width:3.81732;stroke-linecap:round;stroke-linejoin:round;stroke-opacity:1"
       d="m 480.73249,249.86525 c 0,0 -4.3365,-11.35751 -17.34602,-14.04201"
       id="path856" />
    <path
       style="opacity:0.999;fill:none;stroke:#000000;stroke-width:3.81732;stroke-linecap:round;stroke-linejoin:round;stroke-opacity:1"
       d="m 463.38647,235.82324 c 0,0 -1.652,-3.717 -11.56401,4.33651 l -30.56203,14.66151 -9.29251,6.60801 -7.64051,8.67301 -8.26001,10.32501 -7.6405,10.73801 -8.67301,6.8145 -12.39002,3.92351 -15.28101,3.5105 -15.07452,3.0975 -10.73801,8.26001 -7.84701,8.05351 -3.0975,11.97701 1.4455,13.00952 3.30401,20.44352 7.6405,25.19302 15.07452,20.44352 30.35553,39.64804"
       id="path858" />
    <path
       style="opacity:0.999;fill:none;stroke:#000000;stroke-width:3.81732;stroke-linecap:round;stroke-linejoin:round;stroke-opacity:1"
       d="m 316.85841,340.36726 -6.86283,-1.6062 -5.84071,3.35841 -2.62832,2.62832 1.02212,33 1.31416,19.85841 61.61947,70.08849"
       id="path860" />
    <path
       style="opacity:0.999;fill:none;stroke:#000000;stroke-width:3.81732;stroke-linecap:round;stroke-linejoin:round;stroke-opacity:1"
       d="m 304.15487,342.11947 -2.62832,2.62832 -0.58407,-25.5531 -3.35841,-3.06637 -8.90708,-1.89823 -22.48672,-1.89823 -29.20354,-2.33628 -17.23009,-0.58408 -19.56637,3.65045 16.79203,-12.41151 14.45575,-7.59292 12.70354,-1.02212 c 0,0 11.09735,0.14602 7.88496,-6.13274 -3.21239,-6.27877 -25.26106,-26.72124 -25.26106,-26.72124 0,0 -21.17257,-33.43806 -11.24337,-52.42036"
       id="path862" />
    <path
       style="opacity:0.999;fill:none;stroke:#000000;stroke-width:3.81732;stroke-linecap:round;stroke-linejoin:round;stroke-opacity:1"
       d="m 215.52212,206.76106 c 0,0 16.64602,-36.06637 6.13275,-49.5 l -8.32301,-16.79203 12.55752,5.98672 10.36726,4.38053 9.19911,0.14602 11.5354,-2.92035 9.63717,-8.76106 4.38053,-6.42478 -17.23009,-2.62832 -40.73894,-6.71682 32.56195,0.87611 24.82301,4.52655 -16.93805,-7.88496 -18.83629,-6.13274 -11.82743,-3.21239 12.4115,-1.46018 14.60177,2.19027 16.20797,3.79646 17.23009,4.23451 -14.45576,-11.09734 -16.64601,-8.76107 -12.11947,-2.774331 1.31416,-2.628319 4.81858,0.438053 24.38496,8.907077 18.69026,6.86283 9.34514,6.27877 3.94247,-2.77434"
       id="path864" />
    <path
       style="opacity:0.999;fill:none;stroke:#000000;stroke-width:3.81732;stroke-linecap:round;stroke-linejoin:round;stroke-opacity:1"
       d="m 332.25884,57.613559 -2.891,25.812526 -11.15102,-11.357511 -6.608,-9.29251 -7.64051,-4.130004 2.065,8.466508 3.92351,9.912011 4.13,13.216013 3.304,12.390008 1.23901,6.81451 -7.22751,-7.02101 4.3365,16.10702 -13.19015,-3.61519"
       id="path866" />
    <path
       style="opacity:0.999;fill:none;stroke-width:3.81732;stroke-linecap:round;stroke-linejoin:round"
       d="m 332.25884,57.613559 5.782,8.466508 3.92351,16.107017 19.41102,21.269526 c 0,0 18.79152,16.52001 11.97701,37.37653"
       id="path848" />
  </g>
  <rect
     style="fill:none;fill-rule:evenodd"
     id="rect1460"
     width="464.21246"
     height="436.12845"
     x="21.476028"
     y="47.908051" />
  <rect
     style="fill:#0000ff;fill-rule:evenodd"
     id="rect1462"
     width="1.4455"
     height="32.833534"
     x="257.91876"
     y="18.172018" />
  <rect
     style="fill:none;fill-rule:evenodd"
     id="rect1464"
     width="454.30048"
     height="482.38449"
     x="18.17202"
     y="21.476021" />
  <rect
     style="fill:none;fill-rule:evenodd"
     id="rect1466"
     width="497.2525"
     height="505.51251"
     x="31.388039"
     y="18.172018" />
</svg>
